<svg xmlns="http://www.w3.org/2000/svg" width="1024" height="1024" viewBox="0 0 1024 1024">
 <defs>
 <linearGradient id="bg" x1="128" y1="96" x2="896" y2="928" gradientUnits="userSpaceOnUse">
 <stop offset="0" stop-color="#0EA5E9"/>
 <stop offset="0.48" stop-color="#2563EB"/>
 <stop offset="1" stop-color="#1E1B4B"/>
 </linearGradient>
 <linearGradient id="chip" x1="248" y1="214" x2="776" y2="810" gradientUnits="userSpaceOnUse">
 <stop offset="0" stop-color="#FFFFFF" stop-opacity="0.28"/>
 <stop offset="1" stop-color="#FFFFFF" stop-opacity="0.10"/>
 </linearGradient>
 <linearGradient id="shine" x1="318" y1="296" x2="706" y2="728" gradientUnits="userSpaceOnUse">
 <stop offset="0" stop-color="#FFFFFF" stop-opacity="0.32"/>
 <stop offset="1" stop-color="#FFFFFF" stop-opacity="0.06"/>
 </linearGradient>
 <filter id="shadow" x="-20%" y="-20%" width="140%" height="140%">
 <feDropShadow dx="0" dy="28" stdDeviation="32" flood-color="#020617" flood-opacity="0.35"/>
 </filter>
 <filter id="textShadow" x="-20%" y="-20%" width="140%" height="140%">
 <feDropShadow dx="0" dy="10" stdDeviation="10" flood-color="#0F172A" flood-opacity="0.30"/>
 </filter>
 </defs>

 <rect width="1024" height="1024" rx="224" fill="url(#bg)"/>
 <circle cx="210" cy="178" r="190" fill="#FFFFFF" opacity="0.13"/>
 <circle cx="850" cy="832" r="250" fill="#22D3EE" opacity="0.14"/>

 <g opacity="0.58" stroke="#BAE6FD" stroke-width="24" stroke-linecap="round">
 <line x1="198" y1="338" x2="82" y2="338"/>
 <line x1="198" y1="512" x2="72" y2="512"/>
 <line x1="198" y1="686" x2="82" y2="686"/>
 <line x1="826" y1="338" x2="942" y2="338"/>
 <line x1="826" y1="512" x2="952" y2="512"/>
 <line x1="826" y1="686" x2="942" y2="686"/>
 <line x1="338" y1="198" x2="338" y2="82"/>
 <line x1="512" y1="198" x2="512" y2="72"/>
 <line x1="686" y1="198" x2="686" y2="82"/>
 <line x1="338" y1="826" x2="338" y2="942"/>
 <line x1="512" y1="826" x2="512" y2="952"/>
 <line x1="686" y1="826" x2="686" y2="942"/>
 </g>

 <rect x="198" y="198" width="628" height="628" rx="156" fill="url(#chip)" stroke="#DBEAFE" stroke-width="26" filter="url(#shadow)"/>
 <rect x="276" y="276" width="472" height="472" rx="104" fill="#0F172A" opacity="0.13" stroke="#FFFFFF" stroke-width="10" stroke-opacity="0.28"/>
 <polyline points="324,636 396,712 520,740 624,696 679,673 704,641 741,606" fill="none" stroke="#67E8F9" stroke-width="32" stroke-linecap="round" stroke-linejoin="round" opacity="0.58"/>
 <polyline points="324,388 396,312 520,284 624,328 679,351 704,383 741,418" fill="none" stroke="#BFDBFE" stroke-width="32" stroke-linecap="round" stroke-linejoin="round" opacity="0.44"/>
 <rect x="326" y="326" width="372" height="372" rx="84" fill="url(#shine)" opacity="0.28"/>

 <text x="512" y="592" fill="#FFFFFF" font-family="Arial, Helvetica, sans-serif" font-size="330" font-weight="900" text-anchor="middle" letter-spacing="-24" filter="url(#textShadow)">CVI</text>
 <text x="512" y="714" fill="#CFFAFE" font-family="Arial, Helvetica, sans-serif" font-size="76" font-weight="700" text-anchor="middle" letter-spacing="10" opacity="0.92">CUBEMX</text>
</svg>
